<mxfile host="app.diagrams.net" agent="Mozilla/5.0 (Windows NT 10.0; Win64; x64) AppleWebKit/537.36 (KHTML, like Gecko) Chrome/93.0.4577.82 Safari/537.36" version="26.2.14">
  <diagram name="Página-1" id="d7CCNvRrclNTGINtZN0n">
    <mxGraphModel dx="835" dy="686" grid="1" gridSize="10" guides="1" tooltips="1" connect="1" arrows="1" fold="1" page="1" pageScale="1" pageWidth="827" pageHeight="1169" math="0" shadow="0">
      <root>
        <mxCell id="0" />
        <mxCell id="1" parent="0" />
        <mxCell id="wf_q9cVFr6_huXsTD2Tx-11" value="namespace: gestion-ep-dev" style="verticalLabelPosition=bottom;verticalAlign=top;html=1;shape=mxgraph.basic.diag_round_rect;dx=6;whiteSpace=wrap;align=left;spacingLeft=20;spacingTop=-550;spacing=-10;fillColor=light-dark(#ebe6e6, #232e40);strokeColor=light-dark(#dfd7d7, #ededed);gradientColor=none;strokeWidth=2;fontStyle=1" vertex="1" parent="1">
          <mxGeometry x="50" y="15" width="720" height="565" as="geometry" />
        </mxCell>
        <mxCell id="wf_q9cVFr6_huXsTD2Tx-30" value="&amp;nbsp; &amp;nbsp;oracle-participantes&lt;span style=&quot;background-color: transparent;&quot;&gt;: 1522&lt;/span&gt;" style="rounded=0;whiteSpace=wrap;html=1;dashed=1;strokeColor=light-dark(#ff0000, #ededed);align=left;verticalAlign=top;fillColor=none;strokeWidth=2;" vertex="1" parent="1">
          <mxGeometry x="440" y="390" width="270" height="141" as="geometry" />
        </mxCell>
        <mxCell id="wf_q9cVFr6_huXsTD2Tx-15" value="&amp;nbsp; &amp;nbsp;ms-eventos: 8081" style="rounded=0;whiteSpace=wrap;html=1;dashed=1;strokeColor=light-dark(#66B2FF,#EDEDED);align=left;verticalAlign=top;fillColor=none;strokeWidth=2;" vertex="1" parent="1">
          <mxGeometry x="113" y="210" width="274" height="122.25" as="geometry" />
        </mxCell>
        <mxCell id="wf_q9cVFr6_huXsTD2Tx-3" value="&amp;nbsp; &amp;nbsp;oracle-eventos&lt;span style=&quot;background-color: transparent;&quot;&gt;: 1521&lt;/span&gt;" style="rounded=0;whiteSpace=wrap;html=1;dashed=1;strokeColor=light-dark(#ff0000, #ededed);align=left;verticalAlign=top;fillColor=none;strokeWidth=2;" vertex="1" parent="1">
          <mxGeometry x="120" y="390" width="270" height="141" as="geometry" />
        </mxCell>
        <mxCell id="wf_q9cVFr6_huXsTD2Tx-1" value="Pluggable Database&lt;div&gt;XEPDB1&lt;/div&gt;" style="shape=cylinder3;whiteSpace=wrap;html=1;boundedLbl=1;backgroundOutline=1;size=15;fillColor=light-dark(#ff0000, #ededed);fontColor=#FFFFFF;" vertex="1" parent="1">
          <mxGeometry x="179" y="421" width="122" height="89" as="geometry" />
        </mxCell>
        <mxCell id="wf_q9cVFr6_huXsTD2Tx-12" value="ms-eventos" style="rounded=1;whiteSpace=wrap;html=1;fillColor=#1ba1e2;fontColor=#ffffff;strokeColor=none;strokeWidth=2;" vertex="1" parent="1">
          <mxGeometry x="148" y="240" width="140" height="50" as="geometry" />
        </mxCell>
        <mxCell id="wf_q9cVFr6_huXsTD2Tx-13" value="" style="endArrow=classic;html=1;rounded=0;strokeColor=light-dark(#ff0000, #ededed);dashed=1;strokeWidth=2;exitX=0.429;exitY=1.024;exitDx=0;exitDy=0;exitPerimeter=0;entryX=0.337;entryY=0.014;entryDx=0;entryDy=0;entryPerimeter=0;spacing=2;" edge="1" parent="1">
          <mxGeometry width="50" height="50" relative="1" as="geometry">
            <mxPoint x="213.05999999999995" y="291.20000000000005" as="sourcePoint" />
            <mxPoint x="215.99" y="391.97399999999993" as="targetPoint" />
            <Array as="points" />
          </mxGeometry>
        </mxCell>
        <mxCell id="wf_q9cVFr6_huXsTD2Tx-14" value="API-REST" style="rounded=1;whiteSpace=wrap;html=1;fillColor=#e3c800;strokeColor=none;fontColor=light-dark(#ffffff, #ededed);fontSize=10;" vertex="1" parent="1">
          <mxGeometry x="263" y="270" width="85" height="32" as="geometry" />
        </mxCell>
        <mxCell id="wf_q9cVFr6_huXsTD2Tx-16" value="&amp;nbsp; &amp;nbsp;ms-participantes: 8082" style="rounded=0;whiteSpace=wrap;html=1;dashed=1;strokeColor=light-dark(#4D9900,#EDEDED);align=left;verticalAlign=top;fillColor=none;strokeWidth=2;" vertex="1" parent="1">
          <mxGeometry x="440" y="207.88" width="274" height="122.25" as="geometry" />
        </mxCell>
        <mxCell id="wf_q9cVFr6_huXsTD2Tx-17" value="ms-participantes" style="rounded=1;whiteSpace=wrap;html=1;fillColor=#1ba1e2;fontColor=#ffffff;strokeColor=none;strokeWidth=2;" vertex="1" parent="1">
          <mxGeometry x="540" y="244" width="140" height="47.88" as="geometry" />
        </mxCell>
        <mxCell id="wf_q9cVFr6_huXsTD2Tx-18" value="API-REST" style="rounded=1;whiteSpace=wrap;html=1;fillColor=#e3c800;strokeColor=none;fontColor=light-dark(#ffffff, #ededed);fontSize=10;" vertex="1" parent="1">
          <mxGeometry x="465" y="276.88" width="85" height="32" as="geometry" />
        </mxCell>
        <mxCell id="wf_q9cVFr6_huXsTD2Tx-19" value="Comunicación REST (Feign)" style="rounded=1;whiteSpace=wrap;html=1;fillColor=light-dark(#0008e6, #675000);strokeColor=none;fontColor=light-dark(#ffffff, #ededed);fontSize=10;" vertex="1" parent="1">
          <mxGeometry x="465" y="233" width="85" height="32" as="geometry" />
        </mxCell>
        <mxCell id="wf_q9cVFr6_huXsTD2Tx-20" value="&amp;nbsp; &amp;nbsp;ms-gateway: 9099" style="rounded=0;whiteSpace=wrap;html=1;dashed=1;strokeColor=light-dark(#004C99,#EDEDED);align=left;verticalAlign=top;fillColor=none;strokeWidth=2;" vertex="1" parent="1">
          <mxGeometry x="260" y="40" width="310" height="122.25" as="geometry" />
        </mxCell>
        <mxCell id="wf_q9cVFr6_huXsTD2Tx-21" value="ms-gateway&lt;div&gt;Spring Cloud Gateway&lt;/div&gt;" style="rounded=1;whiteSpace=wrap;html=1;fillColor=#B3B3B3;fontColor=#ffffff;strokeColor=none;strokeWidth=2;" vertex="1" parent="1">
          <mxGeometry x="337" y="76.12" width="176" height="47.88" as="geometry" />
        </mxCell>
        <mxCell id="wf_q9cVFr6_huXsTD2Tx-22" value="API-REST" style="rounded=1;whiteSpace=wrap;html=1;fillColor=#e3c800;strokeColor=none;fontColor=light-dark(#ffffff, #ededed);fontSize=10;" vertex="1" parent="1">
          <mxGeometry x="280" y="104" width="79" height="32" as="geometry" />
        </mxCell>
        <mxCell id="wf_q9cVFr6_huXsTD2Tx-26" value="" style="endArrow=classic;html=1;rounded=0;entryX=0.369;entryY=0.008;entryDx=0;entryDy=0;entryPerimeter=0;dashed=1;strokeWidth=2;strokeColor=#B3B3B3;" edge="1" parent="1" target="wf_q9cVFr6_huXsTD2Tx-15">
          <mxGeometry width="50" height="50" relative="1" as="geometry">
            <mxPoint x="330" y="92" as="sourcePoint" />
            <mxPoint x="256" y="162.25" as="targetPoint" />
            <Array as="points">
              <mxPoint x="214" y="92" />
            </Array>
          </mxGeometry>
        </mxCell>
        <mxCell id="wf_q9cVFr6_huXsTD2Tx-27" value="" style="endArrow=classic;html=1;rounded=0;entryX=0.369;entryY=0.008;entryDx=0;entryDy=0;entryPerimeter=0;dashed=1;strokeWidth=2;strokeColor=#B3B3B3;" edge="1" parent="1">
          <mxGeometry width="50" height="50" relative="1" as="geometry">
            <mxPoint x="513" y="92" as="sourcePoint" />
            <mxPoint x="610" y="210" as="targetPoint" />
            <Array as="points">
              <mxPoint x="610" y="92" />
            </Array>
          </mxGeometry>
        </mxCell>
        <mxCell id="wf_q9cVFr6_huXsTD2Tx-28" value="" style="endArrow=classic;html=1;rounded=0;strokeColor=light-dark(#ff0000, #ededed);dashed=1;strokeWidth=2;exitX=0.429;exitY=1.024;exitDx=0;exitDy=0;exitPerimeter=0;entryX=0.667;entryY=0.014;entryDx=0;entryDy=0;entryPerimeter=0;" edge="1" parent="1" target="wf_q9cVFr6_huXsTD2Tx-30">
          <mxGeometry width="50" height="50" relative="1" as="geometry">
            <mxPoint x="620" y="290" as="sourcePoint" />
            <mxPoint x="732" y="465" as="targetPoint" />
            <Array as="points">
              <mxPoint x="620" y="350" />
            </Array>
          </mxGeometry>
        </mxCell>
        <mxCell id="wf_q9cVFr6_huXsTD2Tx-29" value="" style="endArrow=classic;html=1;rounded=0;entryX=1;entryY=0.5;entryDx=0;entryDy=0;dashed=1;strokeColor=#004C99;strokeWidth=2;" edge="1" parent="1" target="wf_q9cVFr6_huXsTD2Tx-15">
          <mxGeometry width="50" height="50" relative="1" as="geometry">
            <mxPoint x="534" y="270.88" as="sourcePoint" />
            <mxPoint x="414" y="270.88" as="targetPoint" />
          </mxGeometry>
        </mxCell>
        <mxCell id="wf_q9cVFr6_huXsTD2Tx-9" value="Pluggable Database&lt;div&gt;XEPDB1&lt;/div&gt;" style="shape=cylinder3;whiteSpace=wrap;html=1;boundedLbl=1;backgroundOutline=1;size=15;fillColor=light-dark(#ff0000, #ededed);fontColor=#FFFFFF;" vertex="1" parent="1">
          <mxGeometry x="520" y="420" width="126" height="90" as="geometry" />
        </mxCell>
      </root>
    </mxGraphModel>
  </diagram>
</mxfile>
